HIERARCHY
ROOT joint_Root
{
	OFFSET 0.0 0.0 0.0
	CHANNELS 6 Xposition Yposition Zposition Zrotation Xrotation Yrotation 
	JOINT Hips
	{
		OFFSET -0.726466 93.3139 -2.00062
		CHANNELS 6 Xposition Yposition Zposition Zrotation Xrotation Yrotation 
		JOINT Spine
		{
			OFFSET 15.7357 0.0 0.0
			CHANNELS 6 Xposition Yposition Zposition Zrotation Xrotation Yrotation 
			JOINT Chest
			{
				OFFSET 8.98455 -0.406207 0.0
				CHANNELS 6 Xposition Yposition Zposition Zrotation Xrotation Yrotation 
				JOINT Neck
				{
					OFFSET 16.3773 0.0 0.0
					CHANNELS 6 Xposition Yposition Zposition Zrotation Xrotation Yrotation 
					JOINT Head
					{
						OFFSET 6.45672 0.0 0.0
						CHANNELS 6 Xposition Yposition Zposition Zrotation Xrotation Yrotation 
						End Site
						{
							OFFSET 0.0 0.0 0.0
						}
					}
				}
				JOINT Shoulder_L
				{
					OFFSET 12.9942 -0.242716 4.98039
					CHANNELS 6 Xposition Yposition Zposition Zrotation Xrotation Yrotation 
					JOINT UpperArm_L
					{
						OFFSET 5.34809 0.0 0.0
						CHANNELS 6 Xposition Yposition Zposition Zrotation Xrotation Yrotation 
						JOINT LowerArm_L
						{
							OFFSET 24.3286 1.87007e-05 0.0
							CHANNELS 6 Xposition Yposition Zposition Zrotation Xrotation Yrotation 
							JOINT Hand_L
							{
								OFFSET 22.2916 0.0 0.0
								CHANNELS 6 Xposition Yposition Zposition Zrotation Xrotation Yrotation 
								End Site
								{
									OFFSET 0.0 0.0 0.0
								}
							}
						}
					}
				}
				JOINT Shoulder_R
				{
					OFFSET 12.9945 -0.242716 -4.98039
					CHANNELS 6 Xposition Yposition Zposition Zrotation Xrotation Yrotation 
					JOINT UpperArm_R
					{
						OFFSET -5.34813 0.0 0.0
						CHANNELS 6 Xposition Yposition Zposition Zrotation Xrotation Yrotation 
						JOINT LowerArm_R
						{
							OFFSET -24.3289 0.000322201 0.0
							CHANNELS 6 Xposition Yposition Zposition Zrotation Xrotation Yrotation 
							JOINT Hand_R
							{
								OFFSET -22.2915 -0.000108084 0.0
								CHANNELS 6 Xposition Yposition Zposition Zrotation Xrotation Yrotation 
								End Site
								{
									OFFSET 0.0 0.0 0.0
								}
							}
						}
					}
				}
			}
		}
		JOINT UpperLeg_L
		{
			OFFSET -2.19248 -6.46944 0.0
			CHANNELS 6 Xposition Yposition Zposition Zrotation Xrotation Yrotation 
			JOINT LowerLeg_L
			{
				OFFSET 39.0811 0.0 -1.23785e-05
				CHANNELS 6 Xposition Yposition Zposition Zrotation Xrotation Yrotation 
				JOINT Foot_L
				{
					OFFSET 40.9854 0.0 -1.26872e-05
					CHANNELS 6 Xposition Yposition Zposition Zrotation Xrotation Yrotation 
					JOINT Toes_L
					{
						OFFSET 11.7543 0.0 0.0
						CHANNELS 6 Xposition Yposition Zposition Zrotation Xrotation Yrotation 
						End Site
						{
							OFFSET 0.0 0.0 0.0
						}
					}
				}
			}
		}
		JOINT UpperLeg_R
		{
			OFFSET -2.19251 6.46944 0.0
			CHANNELS 6 Xposition Yposition Zposition Zrotation Xrotation Yrotation 
			JOINT LowerLeg_R
			{
				OFFSET -39.0811 -0.00228153 -0.0401928
				CHANNELS 6 Xposition Yposition Zposition Zrotation Xrotation Yrotation 
				JOINT Foot_R
				{
					OFFSET -40.9854 0.0 0.0
					CHANNELS 6 Xposition Yposition Zposition Zrotation Xrotation Yrotation 
					JOINT Toes_R
					{
						OFFSET -11.7543 0.0 0.0
						CHANNELS 6 Xposition Yposition Zposition Zrotation Xrotation Yrotation 
						End Site
						{
							OFFSET 0.0 0.0 0.0
						}
					}
				}
			}
		}
	}
}
MOTION
Frames:	5
Frame Time:	0.0333333
0.000000 0.000000 0.000000 0.000000 0.000000 -0.000000 -0.905420 91.918200 -0.556869 87.622400 -1.329870 3.664100 15.735700 0.000005 -0.000001 86.794100 85.347500 -86.407700 8.984550 -0.406207 -0.000000 1.526500 -0.541144 0.779283 16.377300 -0.000001 -0.000001 2.376900 -2.966320 1.498260 6.456720 -0.000001 -0.000000 3.723570 -2.104500 -2.632550 12.994200 -0.242716 4.980390 -89.643200 -1.073520 -71.615500 5.348090 -0.000007 -0.000001 -68.773700 34.313800 -13.583400 24.328600 0.000019 0.000005 2.519240 5.592780 -24.294800 22.291600 -0.000001 0.000005 3.789710 5.504730 -6.725400 12.994500 -0.242716 -4.980390 88.056400 5.303600 -69.840500 -5.348130 -0.000001 -0.000004 -68.440800 31.094200 -13.569400 -24.328900 0.000322 -0.000009 1.196460 3.181720 -20.637000 -22.291500 -0.000108 -0.000004 10.208900 5.528930 -7.747870 -2.192480 -6.469440 -0.000000 -168.879000 -14.474200 -1.447040 39.081100 -0.000007 -0.000012 -0.201632 0.497734 22.053200 40.985400 -0.000006 -0.000013 -5.960520 3.020120 -65.194100 11.754300 -0.000000 0.000003 -0.000045 -0.000515 -16.597600 -2.192510 6.469440 -0.000001 174.119000 20.057500 -179.401000 -39.081100 -0.002282 -0.040193 -0.061538 0.184877 19.332500 -40.985400 0.000008 0.000006 -3.789190 3.163590 -64.075800 -11.754300 -0.000006 -0.000006 -0.005446 -0.065715 -19.247200
0.000000 0.000000 0.000000 0.000000 0.000000 -0.000000 -0.899060 91.928200 -0.592537 87.621300 -1.351650 3.587240 15.735700 0.000005 -0.000001 86.893500 85.377200 -86.500300 8.984550 -0.406207 -0.000000 1.467890 -0.522389 0.792358 16.377300 -0.000001 -0.000001 2.013580 -2.938740 1.549960 6.456720 -0.000001 -0.000000 3.142190 -2.070510 -2.461190 12.994200 -0.242716 4.980390 -89.611600 -1.153840 -71.395200 5.348090 -0.000007 -0.000001 -68.777800 31.734300 -13.396900 24.328600 0.000019 0.000005 3.088490 6.649380 -24.983600 22.291600 -0.000001 0.000005 4.451530 5.510850 -6.973870 12.994500 -0.242716 -4.980390 88.111100 5.106680 -69.669600 -5.348130 -0.000001 -0.000004 -68.515800 27.910800 -13.337100 -24.328900 0.000322 -0.000009 1.162830 3.018450 -21.098100 -22.291500 -0.000108 -0.000004 10.253600 5.526480 -7.641360 -2.192480 -6.469440 -0.000000 -168.914000 -14.470100 -1.530340 39.081100 -0.000007 -0.000012 -0.199349 0.493067 22.014000 40.985400 -0.000006 -0.000013 -5.959970 2.973250 -65.154300 11.754300 -0.000000 0.000003 -0.000045 -0.000521 -16.597800 -2.192510 6.469440 -0.000001 174.179000 20.040000 -179.520000 -39.081100 -0.002282 -0.040193 -0.058601 0.176651 19.317700 -40.985400 0.000008 0.000006 -3.746460 3.106360 -64.036300 -11.754300 -0.000006 -0.000006 -0.005325 -0.064575 -19.200700
0.000000 0.000000 0.000000 0.000000 0.000000 -0.000000 -0.882662 91.954500 -0.630167 87.638000 -1.392000 3.491390 15.735700 0.000005 -0.000001 87.050200 85.420400 -86.655500 8.984550 -0.406207 -0.000000 1.382910 -0.493096 0.794564 16.377300 -0.000001 -0.000001 1.630090 -2.909450 1.593320 6.456720 -0.000001 -0.000000 2.449900 -2.033220 -2.196000 12.994200 -0.242716 4.980390 -89.508300 -1.436490 -71.100400 5.348090 -0.000007 -0.000001 -68.026900 28.724400 -13.820700 24.328600 0.000019 0.000005 3.380160 7.208960 -25.204700 22.291600 -0.000001 0.000005 6.253380 5.515380 -7.160710 12.994500 -0.242716 -4.980390 88.187700 4.839260 -69.440900 -5.348130 -0.000001 -0.000004 -67.900600 23.965200 -13.597100 -24.328900 0.000322 -0.000009 1.195200 3.039170 -21.497500 -22.291500 -0.000108 -0.000004 10.674300 5.511060 -6.987780 -2.192480 -6.469440 -0.000000 -168.969000 -14.508600 -1.553840 39.081100 -0.000007 -0.000012 -0.197636 0.493249 21.835300 40.985400 -0.000006 -0.000013 -5.958650 2.930830 -65.048800 11.754300 -0.000000 0.000003 -0.000048 -0.000545 -16.598700 -2.192510 6.469440 -0.000001 174.240000 19.979100 -179.627000 -39.081100 -0.002282 -0.040193 -0.051473 0.156965 19.243900 -40.985400 0.000008 0.000006 -3.463310 3.063540 -63.996300 -11.754300 -0.000006 -0.000006 -0.005166 -0.063064 -19.139100
0.000000 0.000000 0.000000 0.000000 0.000000 -0.000000 -0.879020 91.977200 -0.714089 87.642800 -1.286730 3.355840 15.735700 0.000005 -0.000001 86.632100 85.494500 -86.230100 8.984550 -0.406207 -0.000000 1.231540 -0.552051 0.809151 16.377300 -0.000001 -0.000001 1.287450 -2.871850 1.583350 6.456720 -0.000001 -0.000000 1.691860 -2.027520 -1.796870 12.994200 -0.242716 4.980390 -89.384700 -1.774760 -70.875100 5.348090 -0.000007 -0.000001 -66.235200 24.927300 -14.901500 24.328600 0.000019 0.000005 3.501460 7.622070 -24.764300 22.291600 -0.000001 0.000005 8.003410 5.519820 -7.353490 12.994500 -0.242716 -4.980390 88.286400 4.529090 -69.250800 -5.348130 -0.000001 -0.000004 -66.140000 19.711500 -14.726700 -24.328900 0.000322 -0.000009 1.097670 2.848910 -21.100400 -22.291500 -0.000108 -0.000004 11.288500 5.503200 -6.665650 -2.192480 -6.469440 -0.000000 -169.053000 -14.426900 -1.754100 39.081100 -0.000007 -0.000012 -0.193584 0.485090 21.755600 40.985400 -0.000006 -0.000013 -5.937380 2.911810 -64.936100 11.754300 -0.000000 0.000003 -0.000051 -0.000577 -16.599900 -2.192510 6.469440 -0.000001 174.321000 20.072500 -179.795000 -39.081100 -0.002282 -0.040193 -0.046576 0.143495 19.174600 -40.985400 0.000008 0.000006 -3.361810 2.991930 -63.914100 -11.754300 -0.000006 -0.000006 -0.005218 -0.063561 -19.159400
0.000000 0.000000 0.000000 0.000000 0.000000 -0.000000 -0.861961 91.997400 -0.775464 87.642800 -1.297880 3.225700 15.735700 0.000005 -0.000001 86.470800 85.579200 -86.044400 8.984550 -0.406207 -0.000000 1.061200 -0.568992 0.857213 16.377300 -0.000001 -0.000001 0.954055 -2.841310 1.620030 6.456720 -0.000001 -0.000000 0.791231 -2.010890 -1.537950 12.994200 -0.242716 4.980390 -89.258400 -2.120800 -70.721400 5.348090 -0.000007 -0.000001 -63.504700 20.342300 -16.606600 24.328600 0.000019 0.000005 3.264850 7.571810 -23.407400 22.291600 -0.000001 0.000005 9.215020 5.522830 -7.481320 12.994500 -0.242716 -4.980390 88.450400 4.058210 -69.080600 -5.348130 -0.000001 -0.000004 -63.688800 14.801900 -16.708700 -24.328900 0.000322 -0.000009 0.953694 2.619630 -20.031100 -22.291500 -0.000108 -0.000004 12.013000 5.483110 -5.870780 -2.192480 -6.469440 -0.000000 -169.119000 -14.401500 -1.885830 39.081100 -0.000007 -0.000012 -0.190507 0.479619 21.663400 40.985400 -0.000006 -0.000013 -5.920860 2.879680 -64.858500 11.754300 -0.000000 0.000003 -0.000046 -0.000531 -16.598200 -2.192510 6.469440 -0.000001 174.394000 20.034700 -179.954000 -39.081100 -0.002282 -0.040193 -0.043320 0.134723 19.096500 -40.985400 0.000008 0.000006 -3.243110 2.950630 -63.835600 -11.754300 -0.000006 -0.000006 -0.005337 -0.064686 -19.205200
